<svg xmlns="http://www.w3.org/2000/svg" viewBox="0 0 48 48" fill="none">
  <path d="M24 2C15.2 2 8 9.2 8 18C8 22.6 9.9 26.7 12.9 29.7L12 42L23.1 37.9C23.4 37.9 23.7 38 24 38C32.8 38 40 30.8 40 22C40 13.2 32.8 6 24 6V2Z" fill="#0176D3"></path>
  <path d="M24 4C14.1 4 6 12.1 6 22C6 27.1 8.2 31.7 11.7 34.9L10.5 44L20.5 40.3C21.6 40.5 22.8 40.6 24 40.6C33.9 40.6 42 32.5 42 22.6C42 12.7 33.9 4 24 4Z" fill="#0176D3"></path>
  <ellipse cx="16" cy="22" rx="2.5" ry="2.5" fill="white"></ellipse>
  <ellipse cx="24" cy="22" rx="2.5" ry="2.5" fill="white"></ellipse>
  <ellipse cx="32" cy="22" rx="2.5" ry="2.5" fill="white"></ellipse>
</svg>